<svg width="50" height="50" viewBox="0 0 50 50" fill="none" xmlns="http://www.w3.org/2000/svg">
<path d="M22.8652 15.8864C24.0357 14.7074 25.9464 14.7074 27.1268 15.8774L27.8571 16.6064C28.1372 16.8864 28.5173 17.0474 28.9174 17.0474H29.9478C31.6084 17.0474 32.9589 18.3964 32.9589 20.0564V21.0874C32.9589 21.4864 33.119 21.8664 33.3991 22.1464L34.1193 22.8664C34.6895 23.4264 34.9996 24.1864 34.9996 24.9864C35.0096 25.7864 34.6995 26.5474 34.1393 27.1164L33.3991 27.8564C33.119 28.1364 32.9589 28.5164 32.9589 28.9174V29.9464C32.9589 31.6064 31.6084 32.9574 29.9478 32.9574H28.9174C28.5173 32.9574 28.1372 33.1164 27.8571 33.3964L27.1368 34.1164C26.5466 34.7074 25.7763 34.9964 25.006 34.9964C24.2357 34.9964 23.4655 34.7074 22.8752 34.1274L22.145 33.3964C21.8649 33.1164 21.4847 32.9574 21.0846 32.9574H20.0542C18.3936 32.9574 17.0431 31.6064 17.0431 29.9464V28.9174C17.0431 28.5164 16.8831 28.1364 16.603 27.8464L15.8827 27.1364C14.7123 25.9674 14.7023 24.0564 15.8727 22.8774L16.603 22.1464C16.8831 21.8664 17.0431 21.4864 17.0431 21.0764V20.0564C17.0431 18.3964 18.3936 17.0474 20.0542 17.0474H21.0846C21.4847 17.0474 21.8649 16.8864 22.145 16.6064L22.8652 15.8864ZM27.577 26.6964C27.0868 26.6964 26.6966 27.0874 26.6966 27.5664C26.6966 28.0564 27.0868 28.4464 27.577 28.4464C28.0571 28.4464 28.4473 28.0564 28.4473 27.5664C28.4473 27.0874 28.0571 26.6964 27.577 26.6964ZM28.1872 21.8064C27.8471 21.4674 27.2969 21.4674 26.9567 21.8064L21.8149 26.9464C21.4747 27.2864 21.4747 27.8464 21.8149 28.1864C21.9749 28.3564 22.195 28.4464 22.4251 28.4464C22.6652 28.4464 22.8853 28.3564 23.0453 28.1864L28.1872 23.0474C28.5273 22.7074 28.5273 22.1464 28.1872 21.8064ZM22.4351 21.5564C21.9549 21.5564 21.5548 21.9464 21.5548 22.4264C21.5548 22.9174 21.9549 23.3064 22.4351 23.3064C22.9153 23.3064 23.3054 22.9174 23.3054 22.4264C23.3054 21.9464 22.9153 21.5564 22.4351 21.5564Z" fill="#6F6F6F"/>
<rect x="0.5" y="0.5" width="49" height="49" rx="24.5" stroke="#E9E9EA"/>
</svg>
