<svg width="31" height="30" viewBox="0 0 31 30" fill="none" xmlns="http://www.w3.org/2000/svg">
<path d="M30.6 0H0.599976V30H30.6V0Z" fill="white" fill-opacity="0.01"/>
<path d="M15.6 2.5C12.1482 2.5 9.34998 5.29822 9.34998 8.75C9.34998 12.2018 12.1482 15 15.6 15C19.0518 15 21.85 12.2018 21.85 8.75C21.85 5.29822 19.0518 2.5 15.6 2.5Z" fill="#FFDF34"/>
<path d="M10.6 17.5C7.1482 17.5 4.34998 20.2982 4.34998 23.75V25C4.34998 26.3807 5.46926 27.5 6.84998 27.5H24.35C25.7307 27.5 26.85 26.3807 26.85 25V23.75C26.85 20.2982 24.0518 17.5 20.6 17.5H10.6Z" fill="#FFDF34"/>
</svg>
