<svg width="67" height="76" viewBox="0 0 67 76" fill="none" xmlns="http://www.w3.org/2000/svg">
<g filter="url(#filter0_d_81_2773)">
<mask id="path-1-inside-1_81_2773" fill="white">
<path fill-rule="evenodd" clip-rule="evenodd" d="M33.5 2C20.5213 2 9.99997 12.5213 9.99997 25.5C9.99997 36.5556 17.6344 45.8282 27.9189 48.3333L33.5 58L39.0811 48.3333C49.3656 45.8282 57 36.5556 57 25.5C57 12.5213 46.4787 2 33.5 2Z"/>
</mask>
<path fill-rule="evenodd" clip-rule="evenodd" d="M33.5 2C20.5213 2 9.99997 12.5213 9.99997 25.5C9.99997 36.5556 17.6344 45.8282 27.9189 48.3333L33.5 58L39.0811 48.3333C49.3656 45.8282 57 36.5556 57 25.5C57 12.5213 46.4787 2 33.5 2Z" fill="#FFD01E"/>
<path d="M27.9189 48.3333L28.7849 47.8333L28.5711 47.4629L28.1556 47.3617L27.9189 48.3333ZM33.5 58L32.634 58.5L33.5 60L34.366 58.5L33.5 58ZM39.0811 48.3333L38.8444 47.3617L38.4289 47.4629L38.2151 47.8333L39.0811 48.3333ZM11 25.5C11 13.0736 21.0736 3 33.5 3V1C19.969 1 9 11.969 9 25.5H11ZM28.1556 47.3617C18.3087 44.9632 11 36.0839 11 25.5H9C9 37.0274 16.9602 46.6932 27.6822 49.3049L28.1556 47.3617ZM34.366 57.5L28.7849 47.8333L27.0529 48.8333L32.634 58.5L34.366 57.5ZM38.2151 47.8333L32.634 57.5L34.366 58.5L39.9471 48.8333L38.2151 47.8333ZM56 25.5C56 36.0839 48.6913 44.9632 38.8444 47.3617L39.3178 49.3049C50.0398 46.6932 58 37.0274 58 25.5H56ZM33.5 3C45.9264 3 56 13.0736 56 25.5H58C58 11.969 47.031 1 33.5 1V3Z" fill="#211F1F" mask="url(#path-1-inside-1_81_2773)"/>
</g>
<path d="M41.1561 14.3333H29.5116C28.2155 14.3333 27.1666 15.3821 27.1666 16.6783V23.2548L21.681 28.6704C21.5166 28.833 21.4042 29.0407 21.3581 29.2672C21.312 29.4938 21.3343 29.7289 21.422 29.9428C21.5098 30.1566 21.6591 30.3396 21.851 30.4685C22.0429 30.5974 22.2688 30.6663 22.5 30.6666V36.4999C22.5 36.8093 22.6229 37.1061 22.8417 37.3249C23.0605 37.5437 23.3572 37.6666 23.6666 37.6666H42.3333C42.6427 37.6666 42.9395 37.5437 43.1583 37.3249C43.3771 37.1061 43.5 36.8093 43.5 36.4999V16.6771C43.5 15.3821 42.4523 14.3333 41.1561 14.3333ZM31.7423 29.6294V35.3333H24.8333V28.8373L28.3181 25.3968L31.7423 28.9003V29.6294ZM34.1666 22.4999H31.8333V20.1666H34.1666V22.4999ZM38.8333 31.8333H36.5V29.4999H38.8333V31.8333ZM38.8333 27.1666H36.5V24.8333H38.8333V27.1666ZM38.8333 22.4999H36.5V20.1666H38.8333V22.4999Z" fill="#211F1F"/>
<path d="M27.1666 29.5H29.5V31.8333H27.1666V29.5Z" fill="#211F1F"/>
<defs>
<filter id="filter0_d_81_2773" x="0" y="0" width="67" height="76" filterUnits="userSpaceOnUse" color-interpolation-filters="sRGB">
<feFlood flood-opacity="0" result="BackgroundImageFix"/>
<feColorMatrix in="SourceAlpha" type="matrix" values="0 0 0 0 0 0 0 0 0 0 0 0 0 0 0 0 0 0 127 0" result="hardAlpha"/>
<feOffset dy="8"/>
<feGaussianBlur stdDeviation="5"/>
<feComposite in2="hardAlpha" operator="out"/>
<feColorMatrix type="matrix" values="0 0 0 0 0 0 0 0 0 0 0 0 0 0 0 0 0 0 0.11 0"/>
<feBlend mode="normal" in2="BackgroundImageFix" result="effect1_dropShadow_81_2773"/>
<feBlend mode="normal" in="SourceGraphic" in2="effect1_dropShadow_81_2773" result="shape"/>
</filter>
</defs>
</svg>
