<svg width="31" height="30" viewBox="0 0 31 30" fill="none" xmlns="http://www.w3.org/2000/svg">
<path d="M20.075 12.75L15.2 6.2502L10.325 12.75L8.82495 11.625L14.45 4.125C14.5373 4.00857 14.6505 3.91406 14.7807 3.84897C14.9109 3.78389 15.0544 3.75 15.2 3.75C15.3455 3.75 15.489 3.78389 15.6192 3.84897C15.7494 3.91406 15.8626 4.00857 15.95 4.125L21.575 11.625L20.075 12.75Z" fill="#FFD01E"/>
<path d="M26.0744 11.25H4.32556C4.2194 11.25 4.11461 11.274 4.01905 11.3202C3.9235 11.3664 3.83965 11.4337 3.7738 11.517C3.70795 11.6003 3.66181 11.6974 3.63885 11.801C3.61588 11.9046 3.61668 12.0121 3.64118 12.1154L6.79704 25.4297H23.6029L26.7588 12.1154C26.7833 12.0121 26.7841 11.9046 26.7611 11.801C26.7381 11.6974 26.692 11.6003 26.6261 11.517C26.5603 11.4337 26.4764 11.3664 26.3809 11.3202C26.2853 11.274 26.1805 11.25 26.0744 11.25ZM15.2 20.6051C14.7633 20.603 14.337 20.4716 13.975 20.2274C13.6129 19.9832 13.3314 19.6372 13.1659 19.2331C13.0003 18.829 12.9582 18.3849 13.0449 17.9569C13.1316 17.5289 13.3432 17.1362 13.6529 16.8284C13.9626 16.5205 14.3566 16.3114 14.7851 16.2273C15.2136 16.1432 15.6575 16.188 16.0605 16.356C16.4636 16.524 16.8079 16.8077 17.0499 17.1712C17.2918 17.5347 17.4207 17.9618 17.4201 18.3984C17.4167 18.985 17.1813 19.5463 16.7653 19.9598C16.3493 20.3732 15.7865 20.6052 15.2 20.6051Z" fill="#FFD01E"/>
</svg>
