<svg width="22" height="14" viewBox="0 0 22 14" fill="none" xmlns="http://www.w3.org/2000/svg">
<path fill-rule="evenodd" clip-rule="evenodd" d="M22 7C22 7.20625 21.9172 7.40405 21.7699 7.54989C21.6225 7.69574 21.4227 7.77767 21.2143 7.77767H2.68366L7.62863 12.6708C7.70168 12.7431 7.75962 12.8289 7.79916 12.9234C7.83869 13.0178 7.85904 13.1191 7.85904 13.2213C7.85904 13.3236 7.83869 13.4249 7.79916 13.5193C7.75962 13.6138 7.70168 13.6996 7.62863 13.7719C7.55558 13.8442 7.46886 13.9016 7.37342 13.9407C7.27798 13.9799 7.17569 14 7.07238 14C6.96908 14 6.86678 13.9799 6.77134 13.9407C6.6759 13.9016 6.58918 13.8442 6.51613 13.7719L0.230818 7.55059C0.157652 7.47835 0.0996029 7.39253 0.0599953 7.29805C0.0203877 7.20358 0 7.10229 0 7C0 6.89771 0.0203877 6.79642 0.0599953 6.70195C0.0996029 6.60747 0.157652 6.52165 0.230818 6.44941L6.51613 0.228062C6.58918 0.155757 6.6759 0.098402 6.77134 0.0592709C6.86678 0.0201397 6.96908 0 7.07238 0C7.17569 0 7.27798 0.0201397 7.37342 0.0592709C7.46886 0.098402 7.55558 0.155757 7.62863 0.228062C7.70168 0.300365 7.75962 0.386204 7.79916 0.480674C7.83869 0.575144 7.85904 0.676397 7.85904 0.778651C7.85904 0.880905 7.83869 0.982158 7.79916 1.07663C7.75962 1.1711 7.70168 1.25694 7.62863 1.32924L2.68366 6.22233H21.2143C21.4227 6.22233 21.6225 6.30426 21.7699 6.4501C21.9172 6.59595 22 6.79375 22 7Z" fill="black"/>
</svg>
