<svg width="50" height="50" viewBox="0 0 50 50" fill="none" xmlns="http://www.w3.org/2000/svg">
<path d="M20 34C19.45 34 18.9793 33.8043 18.588 33.413C18.196 33.021 18 32.55 18 32V19C17.7167 19 17.479 18.9043 17.287 18.713C17.0957 18.521 17 18.2833 17 18C17 17.7167 17.0957 17.479 17.287 17.287C17.479 17.0957 17.7167 17 18 17H22C22 16.7167 22.096 16.479 22.288 16.287C22.4793 16.0957 22.7167 16 23 16H27C27.2833 16 27.521 16.0957 27.713 16.287C27.9043 16.479 28 16.7167 28 17H32C32.2833 17 32.5207 17.0957 32.712 17.287C32.904 17.479 33 17.7167 33 18C33 18.2833 32.904 18.521 32.712 18.713C32.5207 18.9043 32.2833 19 32 19V32C32 32.55 31.8043 33.021 31.413 33.413C31.021 33.8043 30.55 34 30 34H20ZM22 29C22 29.2833 22.096 29.5207 22.288 29.712C22.4793 29.904 22.7167 30 23 30C23.2833 30 23.521 29.904 23.713 29.712C23.9043 29.5207 24 29.2833 24 29V22C24 21.7167 23.9043 21.479 23.713 21.287C23.521 21.0957 23.2833 21 23 21C22.7167 21 22.4793 21.0957 22.288 21.287C22.096 21.479 22 21.7167 22 22V29ZM26 29C26 29.2833 26.096 29.5207 26.288 29.712C26.4793 29.904 26.7167 30 27 30C27.2833 30 27.521 29.904 27.713 29.712C27.9043 29.5207 28 29.2833 28 29V22C28 21.7167 27.9043 21.479 27.713 21.287C27.521 21.0957 27.2833 21 27 21C26.7167 21 26.4793 21.0957 26.288 21.287C26.096 21.479 26 21.7167 26 22V29Z" fill="#6F6F6F"/>
<rect x="0.5" y="0.5" width="49" height="49" rx="24.5" stroke="#E9E9EA"/>
</svg>
