<svg width="40" height="41" viewBox="0 0 40 41" fill="none" xmlns="http://www.w3.org/2000/svg">
<path d="M31.6666 12.1666C31.6666 10.3333 30.1666 8.83325 28.3333 8.83325H23.3333V12.1666H28.3333V16.5833L22.5333 23.8333H16.6666V15.4999H9.99992C6.31659 15.4999 3.33325 18.4833 3.33325 22.1666V27.1666H6.66659C6.66659 29.9333 8.89992 32.1666 11.6666 32.1666C14.4333 32.1666 16.6666 29.9333 16.6666 27.1666H24.1333L31.6666 17.7499V12.1666ZM11.6666 28.8333C10.7499 28.8333 9.99992 28.0833 9.99992 27.1666H13.3333C13.3333 28.0833 12.5833 28.8333 11.6666 28.8333Z" fill="black"/>
<path d="M8.33325 10.5H16.6666V13.8333H8.33325V10.5ZM31.6666 22.1667C28.8999 22.1667 26.6666 24.4 26.6666 27.1667C26.6666 29.9333 28.8999 32.1667 31.6666 32.1667C34.4333 32.1667 36.6666 29.9333 36.6666 27.1667C36.6666 24.4 34.4333 22.1667 31.6666 22.1667ZM31.6666 28.8333C30.7499 28.8333 29.9999 28.0833 29.9999 27.1667C29.9999 26.25 30.7499 25.5 31.6666 25.5C32.5833 25.5 33.3333 26.25 33.3333 27.1667C33.3333 28.0833 32.5833 28.8333 31.6666 28.8333Z" fill="black"/>
</svg>
