<svg width="25" height="25" viewBox="0 0 25 25" fill="none" xmlns="http://www.w3.org/2000/svg">
<path fill-rule="evenodd" clip-rule="evenodd" d="M9.72222 23.6111C9.72222 23.2428 9.59418 22.8895 9.36627 22.629C9.13837 22.3685 8.82926 22.2222 8.50694 22.2222H2.43056V2.77778H8.50694C8.82926 2.77778 9.13837 2.63145 9.36627 2.37098C9.59418 2.11051 9.72222 1.75725 9.72222 1.38889C9.72222 1.02053 9.59418 0.667263 9.36627 0.406796C9.13837 0.146329 8.82926 0 8.50694 0H2.43056C1.78593 0 1.16771 0.292658 0.711893 0.813592C0.256076 1.33453 0 2.04107 0 2.77778V22.2222C0 22.9589 0.256076 23.6655 0.711893 24.1864C1.16771 24.7073 1.78593 25 2.43056 25H8.50694C8.82926 25 9.13837 24.8537 9.36627 24.5932C9.59418 24.3327 9.72222 23.9795 9.72222 23.6111Z" fill="#211F1F"/>
<path d="M24.631 13.4894C24.8669 13.2312 24.9994 12.8836 24.9999 12.5213V12.513C24.9992 12.146 24.8633 11.7944 24.622 11.5352L19.4633 5.97968C19.3443 5.84702 19.202 5.74121 19.0447 5.66842C18.8873 5.59563 18.7181 5.55732 18.5468 5.55572C18.3756 5.55411 18.2058 5.58925 18.0473 5.65909C17.8888 5.72892 17.7448 5.83205 17.6237 5.96246C17.5026 6.09287 17.4068 6.24794 17.342 6.41863C17.2771 6.58932 17.2445 6.77221 17.246 6.95662C17.2475 7.14104 17.2831 7.32329 17.3507 7.49274C17.4182 7.66219 17.5165 7.81544 17.6397 7.94356L20.5969 11.1283H8.23402C7.89197 11.1283 7.56394 11.2746 7.32208 11.5351C7.08021 11.7955 6.94434 12.1488 6.94434 12.5172C6.94434 12.8855 7.08021 13.2388 7.32208 13.4993C7.56394 13.7597 7.89197 13.9061 8.23402 13.9061H20.5969L17.6397 17.0908C17.4047 17.3527 17.2748 17.7036 17.2777 18.0677C17.2806 18.4319 17.4163 18.7802 17.6554 19.0378C17.8945 19.2953 18.218 19.4413 18.5561 19.4445C18.8943 19.4477 19.22 19.3077 19.4633 19.0547L24.622 13.4991L24.631 13.4894Z" fill="#211F1F"/>
</svg>
