<svg width="50" height="50" viewBox="0 0 50 50" fill="none" xmlns="http://www.w3.org/2000/svg">
<path d="M22.6 19.0001C22.6 18.3636 22.8529 17.7531 23.303 17.303C23.7531 16.853 24.3635 16.6001 25 16.6001C25.6365 16.6001 26.247 16.853 26.6971 17.303C27.1472 17.7531 27.4 18.3636 27.4 19.0001V19.9481C30.8704 20.9801 33.4 24.1949 33.4 28.0001C33.4 28.1592 33.3368 28.3118 33.2243 28.4244C33.1118 28.5369 32.9592 28.6001 32.8 28.6001H17.2C17.0409 28.6001 16.8883 28.5369 16.7758 28.4244C16.6632 28.3118 16.6 28.1592 16.6 28.0001C16.6001 26.1909 17.1841 24.4301 18.2651 22.9794C19.3461 21.5287 20.8664 20.4656 22.6 19.9481V19.0001ZM25.6 23.2001C26.1064 23.2001 26.608 23.2049 27.1216 23.3897C27.6172 23.5673 28.1656 23.9309 28.7008 24.7337C28.7446 24.7993 28.8008 24.8556 28.8663 24.8994C28.9317 24.9432 29.0052 24.9737 29.0825 24.9892C29.1598 25.0046 29.2393 25.0046 29.3166 24.9893C29.3939 24.974 29.4675 24.9436 29.533 24.8999C29.5986 24.8562 29.6549 24.8 29.6987 24.7345C29.7425 24.669 29.773 24.5955 29.7885 24.5182C29.8039 24.4409 29.804 24.3614 29.7887 24.2841C29.7733 24.2068 29.743 24.1333 29.6992 24.0677C29.0332 23.0693 28.2832 22.5317 27.5272 22.2605C26.806 22.0001 26.116 22.0001 25.624 22.0001H25.6C25.4409 22.0001 25.2883 22.0633 25.1758 22.1758C25.0632 22.2884 25 22.441 25 22.6001C25 22.7592 25.0632 22.9118 25.1758 23.0244C25.2883 23.1369 25.4409 23.2001 25.6 23.2001ZM17.2 29.8001C16.7226 29.8001 16.2648 29.9897 15.9272 30.3273C15.5897 30.6649 15.4 31.1227 15.4 31.6001C15.4 32.0775 15.5897 32.5353 15.9272 32.8729C16.2648 33.2105 16.7226 33.4001 17.2 33.4001H32.8C33.2774 33.4001 33.7353 33.2105 34.0728 32.8729C34.4104 32.5353 34.6 32.0775 34.6 31.6001C34.6 31.1227 34.4104 30.6649 34.0728 30.3273C33.7353 29.9897 33.2774 29.8001 32.8 29.8001H17.2Z" fill="#6F6F6F"/>
<rect x="0.5" y="0.5" width="49" height="49" rx="24.5" stroke="#E9E9EA"/>
</svg>
