<svg width="31" height="30" viewBox="0 0 31 30" fill="none" xmlns="http://www.w3.org/2000/svg">
<path d="M15.8 1.875C13.066 1.87823 10.4448 2.96575 8.51153 4.89902C6.57826 6.83229 5.49074 9.45344 5.48751 12.1875C5.48424 14.4218 6.21405 16.5954 7.56501 18.375C7.56501 18.375 7.84626 18.7453 7.8922 18.7987L15.8 28.125L23.7116 18.7941C23.7528 18.7444 24.035 18.375 24.035 18.375L24.0359 18.3722C25.3862 16.5934 26.1157 14.4207 26.1125 12.1875C26.1093 9.45344 25.0218 6.83229 23.0885 4.89902C21.1552 2.96575 18.5341 1.87823 15.8 1.875ZM16.7375 16.875H14.8625V15H16.7375V16.875ZM16.7375 13.125H14.8625V11.25H16.7375V13.125ZM20.4875 16.875H18.6125V9.375H12.9875V16.875H11.1125V9.375C11.113 8.87787 11.3107 8.40125 11.6622 8.04972C12.0138 7.6982 12.4904 7.5005 12.9875 7.5H18.6125C19.1096 7.5005 19.5863 7.6982 19.9378 8.04972C20.2893 8.40125 20.487 8.87787 20.4875 9.375V16.875Z" fill="#FFD01E"/>
</svg>
