<svg width="25" height="24" viewBox="0 0 25 24" fill="none" xmlns="http://www.w3.org/2000/svg">
<path d="M7.52505 13.6749L11.0626 10.1374L2.28755 1.37495C1.35112 2.31409 0.825256 3.58621 0.825256 4.91245C0.825256 6.23868 1.35112 7.51081 2.28755 8.44995L7.52505 13.6749ZM16.0001 11.4124C17.9126 12.2999 20.6001 11.6749 22.5876 9.68745C24.9751 7.29995 25.4376 3.87495 23.6001 2.03745C21.7751 0.212447 18.3501 0.662447 15.9501 3.04995C13.9626 5.03745 13.3376 7.72495 14.2251 9.63745L2.02505 21.8374L3.78755 23.5999L12.4001 15.0124L21.0001 23.6124L22.7626 21.8499L14.1626 13.2499L16.0001 11.4124Z" fill="#FFD01E"/>
</svg>
