<svg width="32" height="32" viewBox="0 0 32 32" fill="none" xmlns="http://www.w3.org/2000/svg">
<path d="M7.5 19C8.88071 19 10 17.8807 10 16.5C10 15.1193 8.88071 14 7.5 14C6.11929 14 5 15.1193 5 16.5C5 17.8807 6.11929 19 7.5 19Z" fill="#211F1F"/>
<path d="M16.5 19C17.8807 19 19 17.8807 19 16.5C19 15.1193 17.8807 14 16.5 14C15.1193 14 14 15.1193 14 16.5C14 17.8807 15.1193 19 16.5 19Z" fill="#211F1F"/>
<path d="M25.5 19C26.8807 19 28 17.8807 28 16.5C28 15.1193 26.8807 14 25.5 14C24.1193 14 23 15.1193 23 16.5C23 17.8807 24.1193 19 25.5 19Z" fill="#211F1F"/>
</svg>
