<svg width="30" height="30" viewBox="0 0 30 30" fill="none" xmlns="http://www.w3.org/2000/svg">
<path d="M12 7.5C12 6.70435 12.3161 5.94129 12.8787 5.37868C13.4413 4.81607 14.2044 4.5 15 4.5C15.7956 4.5 16.5587 4.81607 17.1213 5.37868C17.6839 5.94129 18 6.70435 18 7.5V8.685C22.338 9.975 25.5 13.9935 25.5 18.75C25.5 18.9489 25.421 19.1397 25.2803 19.2803C25.1397 19.421 24.9489 19.5 24.75 19.5H5.25C5.05109 19.5 4.86032 19.421 4.71967 19.2803C4.57902 19.1397 4.5 18.9489 4.5 18.75C4.50014 16.4885 5.2301 14.2875 6.58136 12.4741C7.93261 10.6607 9.83301 9.33183 12 8.685V7.5ZM15.75 12.75C16.383 12.75 17.01 12.756 17.652 12.987C18.2715 13.209 18.957 13.6635 19.626 14.667C19.6807 14.7489 19.7509 14.8193 19.8328 14.8741C19.9147 14.9289 20.0065 14.967 20.1031 14.9863C20.1997 15.0056 20.2991 15.0057 20.3958 14.9865C20.4924 14.9674 20.5843 14.9294 20.6663 14.8748C20.7482 14.8201 20.8186 14.7498 20.8734 14.668C20.9281 14.5861 20.9663 14.4942 20.9856 14.3977C21.0049 14.3011 21.0049 14.2016 20.9858 14.105C20.9667 14.0084 20.9287 13.9164 20.874 13.8345C20.0415 12.5865 19.104 11.9145 18.159 11.5755C17.2575 11.25 16.395 11.25 15.78 11.25H15.75C15.5511 11.25 15.3603 11.329 15.2197 11.4697C15.079 11.6103 15 11.8011 15 12C15 12.1989 15.079 12.3897 15.2197 12.5303C15.3603 12.671 15.5511 12.75 15.75 12.75ZM5.25 21C4.65326 21 4.08097 21.2371 3.65901 21.659C3.23705 22.081 3 22.6533 3 23.25C3 23.8467 3.23705 24.419 3.65901 24.841C4.08097 25.2629 4.65326 25.5 5.25 25.5H24.75C25.3467 25.5 25.919 25.2629 26.341 24.841C26.7629 24.419 27 23.8467 27 23.25C27 22.6533 26.7629 22.081 26.341 21.659C25.919 21.2371 25.3467 21 24.75 21H5.25Z" fill="#FFD01E"/>
</svg>
