<svg width="41" height="40" viewBox="0 0 41 40" fill="none" xmlns="http://www.w3.org/2000/svg">
<path d="M33.25 11.8125H27.9375V11.1875C27.9375 7.21875 24.7188 4 20.75 4C16.7812 4 13.5625 7.21875 13.5625 11.1875V11.8125H8.25C7.55859 11.8125 7 12.3711 7 13.0625V34C7 34.6914 7.55859 35.25 8.25 35.25H33.25C33.9414 35.25 34.5 34.6914 34.5 34V13.0625C34.5 12.3711 33.9414 11.8125 33.25 11.8125ZM16.375 11.1875C16.375 8.76953 18.332 6.8125 20.75 6.8125C23.168 6.8125 25.125 8.76953 25.125 11.1875V11.8125H16.375V11.1875ZM31.6875 32.4375H9.8125V14.625H13.5625V18.0625C13.5625 18.2344 13.7031 18.375 13.875 18.375H16.0625C16.2344 18.375 16.375 18.2344 16.375 18.0625V14.625H25.125V18.0625C25.125 18.2344 25.2656 18.375 25.4375 18.375H27.625C27.7969 18.375 27.9375 18.2344 27.9375 18.0625V14.625H31.6875V32.4375Z" fill="#211F1F"/>
</svg>
