<svg width="21" height="22" viewBox="0 0 21 22" fill="none" xmlns="http://www.w3.org/2000/svg">
<path fill-rule="evenodd" clip-rule="evenodd" d="M9.37503 0.666626C7.90667 0.666751 6.45963 1.01802 5.15464 1.69113C3.84965 2.36423 2.72455 3.33966 1.8732 4.53603C1.02186 5.73239 0.468958 7.115 0.260631 8.56851C0.0523045 10.022 0.194592 11.5043 0.675624 12.8916C1.15665 14.2789 1.96248 15.5311 3.02587 16.5437C4.08926 17.5562 5.37938 18.2998 6.78859 18.7124C8.1978 19.1249 9.68523 19.1945 11.1268 18.9153C12.5684 18.6361 13.9223 18.0162 15.0755 17.1073L19.0319 21.0636C19.2362 21.261 19.5098 21.3702 19.7939 21.3677C20.0779 21.3652 20.3496 21.2513 20.5505 21.0504C20.7514 20.8496 20.8653 20.5779 20.8678 20.2938C20.8702 20.0098 20.761 19.7361 20.5637 19.5318L16.6074 15.5755C17.6777 14.2176 18.3441 12.5859 18.5304 10.867C18.7167 9.1481 18.4152 7.41148 17.6606 5.85589C16.906 4.30031 15.7287 2.9886 14.2634 2.07088C12.7981 1.15316 11.104 0.66651 9.37503 0.666626ZM2.33336 9.87496C2.33336 8.00739 3.07525 6.21632 4.39582 4.89575C5.71639 3.57518 7.50746 2.83329 9.37503 2.83329C11.2426 2.83329 13.0337 3.57518 14.3542 4.89575C15.6748 6.21632 16.4167 8.00739 16.4167 9.87496C16.4167 11.7425 15.6748 13.5336 14.3542 14.8542C13.0337 16.1747 11.2426 16.9166 9.37503 16.9166C7.50746 16.9166 5.71639 16.1747 4.39582 14.8542C3.07525 13.5336 2.33336 11.7425 2.33336 9.87496Z" fill="#211F1F"/>
</svg>
