<svg width="50" height="50" viewBox="0 0 50 50" fill="none" xmlns="http://www.w3.org/2000/svg">
<path d="M26.6082 33.9145H23.3924C23.1909 33.9145 22.9955 33.8451 22.8385 33.7176C22.6815 33.5902 22.5724 33.4124 22.5293 33.2138L22.1697 31.5344C21.6901 31.3223 21.2352 31.0571 20.8136 30.7437L19.1907 31.2652C18.9986 31.327 18.7914 31.3206 18.6033 31.2472C18.4153 31.1737 18.2578 31.0376 18.1571 30.8614L16.5457 28.0525C16.446 27.8761 16.4085 27.6708 16.4395 27.4701C16.4705 27.2695 16.568 27.0854 16.7162 26.948L17.9751 25.7891C17.9178 25.2642 17.9178 24.7345 17.9751 24.2095L16.7162 23.0533C16.5678 22.9159 16.4701 22.7316 16.4392 22.5308C16.4082 22.3299 16.4457 22.1244 16.5457 21.948L18.1535 19.1373C18.2543 18.9611 18.4118 18.8249 18.5998 18.7515C18.7878 18.678 18.9951 18.6717 19.1872 18.7335L20.8101 19.255C21.0256 19.0945 21.25 18.9447 21.4815 18.8093C21.705 18.6827 21.9347 18.5677 22.1697 18.4652L22.5302 16.7875C22.5731 16.5889 22.682 16.411 22.8388 16.2834C22.9956 16.1558 23.191 16.0862 23.3924 16.0859H26.6082C26.8096 16.0862 27.005 16.1558 27.1618 16.2834C27.3186 16.411 27.4275 16.5889 27.4704 16.7875L27.8344 18.4661C28.3134 18.6793 28.7681 18.9445 29.1905 19.2567L30.8143 18.7353C31.0063 18.6737 31.2133 18.6801 31.4012 18.7536C31.589 18.827 31.7463 18.963 31.847 19.1391L33.4549 21.9498C33.6599 22.3126 33.5892 22.7717 33.2844 23.0542L32.0255 24.2131C32.0827 24.738 32.0827 25.2678 32.0255 25.7927L33.2844 26.9516C33.5892 27.235 33.6599 27.6932 33.4549 28.056L31.847 30.8667C31.7463 31.0429 31.5888 31.1791 31.4008 31.2525C31.2128 31.326 31.0055 31.3323 30.8134 31.2705L29.1905 30.749C28.7692 31.0622 28.3147 31.3271 27.8353 31.5389L27.4704 33.2138C27.4273 33.4123 27.3184 33.5899 27.1616 33.7174C27.0047 33.8448 26.8095 33.9143 26.6082 33.9145ZM24.9968 21.4345C24.0595 21.4345 23.1607 21.8102 22.498 22.4789C21.8353 23.1476 21.463 24.0545 21.463 25.0002C21.463 25.9459 21.8353 26.8529 22.498 27.5216C23.1607 28.1903 24.0595 28.5659 24.9968 28.5659C25.934 28.5659 26.8328 28.1903 27.4955 27.5216C28.1582 26.8529 28.5306 25.9459 28.5306 25.0002C28.5306 24.0545 28.1582 23.1476 27.4955 22.4789C26.8328 21.8102 25.934 21.4345 24.9968 21.4345Z" fill="#6F6F6F"/>
<rect x="0.5" y="0.5" width="49" height="49" rx="24.5" stroke="#E9E9EA"/>
</svg>
