<svg width="50" height="50" viewBox="0 0 50 50" fill="none" xmlns="http://www.w3.org/2000/svg">
<path d="M34 30V21H20V30H34ZM34 16C34.5304 16 35.0391 16.2107 35.4142 16.5858C35.7893 16.9609 36 17.4696 36 18V30C36 30.5304 35.7893 31.0391 35.4142 31.4142C35.0391 31.7893 34.5304 32 34 32H20C19.4696 32 18.9609 31.7893 18.5858 31.4142C18.2107 31.0391 18 30.5304 18 30V18C18 17.4696 18.2107 16.9609 18.5858 16.5858C18.9609 16.2107 19.4696 16 20 16H21V14H23V16H31V14H33V16H34ZM30.53 24.06L26.09 28.5L23.41 25.82L24.47 24.76L26.09 26.38L29.47 23L30.53 24.06ZM16 34H30V36H16C15.4696 36 14.9609 35.7893 14.5858 35.4142C14.2107 35.0391 14 34.5304 14 34V22H16V34Z" fill="#6F6F6F"/>
<rect x="0.5" y="0.5" width="49" height="49" rx="24.5" stroke="#E9E9EA"/>
</svg>
