<svg width="31" height="30" viewBox="0 0 31 30" fill="none" xmlns="http://www.w3.org/2000/svg">
<path d="M15.8001 1.875C13.066 1.87823 10.4449 2.96575 8.51158 4.89902C6.57831 6.83229 5.49079 9.45344 5.48756 12.1875C5.48429 14.4218 6.2141 16.5954 7.56506 18.375C7.56506 18.375 7.84631 18.7453 7.89225 18.7987L15.8001 28.125L23.7116 18.7941C23.7529 18.7444 24.0351 18.375 24.0351 18.375L24.036 18.3722C25.3863 16.5934 26.1158 14.4207 26.1126 12.1875C26.1093 9.45344 25.0218 6.83229 23.0885 4.89902C21.1553 2.96575 18.5341 1.87823 15.8001 1.875ZM16.7376 16.875H14.8626V15H16.7376V16.875ZM16.7376 13.125H14.8626V11.25H16.7376V13.125ZM20.4876 16.875H18.6126V9.375H12.9876V16.875H11.1126V9.375C11.1131 8.87787 11.3108 8.40125 11.6623 8.04972C12.0138 7.6982 12.4904 7.5005 12.9876 7.5H18.6126C19.1097 7.5005 19.5863 7.6982 19.9378 8.04972C20.2894 8.40125 20.4871 8.87787 20.4876 9.375V16.875Z" fill="#D1D1D1"/>
</svg>
