<svg width="25" height="24" viewBox="0 0 25 24" fill="none" xmlns="http://www.w3.org/2000/svg">
<path d="M7.52499 13.6749L11.0625 10.1374L2.28749 1.37495C1.35105 2.31409 0.825195 3.58621 0.825195 4.91245C0.825195 6.23868 1.35105 7.51081 2.28749 8.44995L7.52499 13.6749ZM16 11.4124C17.9125 12.2999 20.6 11.6749 22.5875 9.68745C24.975 7.29995 25.4375 3.87495 23.6 2.03745C21.775 0.212447 18.35 0.662447 15.95 3.04995C13.9625 5.03745 13.3375 7.72495 14.225 9.63745L2.02499 21.8374L3.78749 23.5999L12.4 15.0124L21 23.6124L22.7625 21.8499L14.1625 13.2499L16 11.4124Z" fill="#D1D1D1"/>
</svg>
